<svg width="30" height="22" viewBox="0 0 30 22" fill="none" xmlns="http://www.w3.org/2000/svg">
<path fill-rule="evenodd" clip-rule="evenodd" d="M6.43616 1.42053L7.86572 4.41632L27.4119 4.53608C28.2564 4.54125 29.2169 5.32155 28.9716 5.98384L25.783 14.3722C25.537 15.1451 25.1716 15.6961 24.327 15.6909L12.1408 15.6162C11.7782 15.7246 11.4169 15.6118 11.2983 15.2792L5.10285 2.40804L1.84516 2.38808C0.759265 2.38143 0.768077 0.943283 1.85397 0.949936L5.59428 0.972852C5.95625 0.97507 6.31686 1.19854 6.43616 1.42053ZM13.8246 16.5116C15.1518 16.5197 16.2316 17.522 16.2241 18.7389C16.2167 19.9558 15.1247 20.9448 13.7975 20.9367C12.4703 20.9285 11.3905 19.9262 11.3979 18.7093C11.4054 17.4924 12.4974 16.5035 13.8246 16.5116ZM13.8178 17.6179C14.5417 17.6223 15.021 18.1784 15.0176 18.7315C15.0135 19.3953 14.5282 19.8348 13.8043 19.8304C13.201 19.8267 12.6004 19.3805 12.6045 18.7167C12.6079 18.1636 13.2145 17.6142 13.8178 17.6179ZM22.0291 16.5619C23.3564 16.57 24.4361 17.5723 24.4287 18.7892C24.4212 20.0061 23.3292 20.9951 22.002 20.9869C20.6748 20.9788 19.595 19.9765 19.6025 18.7596C19.6099 17.5427 20.7019 16.5537 22.0291 16.5619ZM22.0224 17.6681C22.7463 17.6726 23.2255 18.2286 23.2221 18.7818C23.2181 19.4455 22.7327 19.8851 22.0088 19.8807C21.4055 19.877 20.805 19.4308 20.809 18.767C20.8124 18.2139 21.4191 17.6644 22.0224 17.6681ZM19.0609 8.68888C19.3015 8.80099 19.4215 8.91235 19.5415 9.02372L21.7133 9.03703C22.7992 9.04368 22.7904 10.4818 21.7045 10.4752L19.5327 10.4619C19.4107 10.6824 19.2893 10.7923 19.048 10.7908L19.0345 13.0033C19.029 13.8883 17.4605 13.8787 17.4659 12.9937L17.4795 10.7812C17.2382 10.7797 16.9976 10.6676 16.8783 10.4456L14.7065 10.4323C13.7412 10.4264 13.75 8.98824 14.7153 8.99415L16.8871 9.00746C17.0084 8.89757 17.2504 8.78842 17.4924 8.67927L17.5053 6.57737C17.5114 5.58173 19.0799 5.59134 19.0738 6.58698L19.0609 8.68888Z" fill="white"/>
</svg>
